<svg width="25" height="25" viewBox="0 0 25 25" fill="none" xmlns="http://www.w3.org/2000/svg">
<path d="M12.5 0C5.60714 0 0 5.60714 0 12.5C0 19.3929 5.60714 25 12.5 25C19.3929 25 25 19.3929 25 12.5C25 5.60714 19.3929 0 12.5 0ZM12.5 23.8286C9.5875 23.8286 6.92857 22.7232 4.91964 20.9107L7.38929 18.4411C7.20536 17.8821 7.15714 17.3696 7.15179 17.0214L4.09107 20.0821C2.27857 18.0714 1.17143 15.4125 1.17143 12.5C1.17143 6.25357 6.25357 1.17143 12.5 1.17143C15.4125 1.17143 18.0714 2.27679 20.0804 4.08929L16.7018 7.46964C17.0214 7.50357 17.2304 7.55714 17.2607 7.56429L17.7643 7.70179L18.0375 7.78929L20.9089 4.91786C22.7232 6.92857 23.8286 9.5875 23.8286 12.5C23.8286 18.7464 18.7464 23.8286 12.5 23.8286Z" fill="#E60023"/>
<path d="M11.1446 17.4C10.5196 16.8589 9.82499 16.65 9.24285 16.5857C8.50178 16.5036 7.94463 16.6571 7.94463 16.6571C7.94463 16.6571 7.88392 17.1553 8.02499 17.8053C8.15356 18.4036 8.45356 19.1303 9.13392 19.7214C10.5518 20.9518 12.3339 21.15 12.3339 21.15C12.3339 21.15 12.5643 18.6303 11.1446 17.4Z" fill="#F7C719"/>
<path d="M14.0375 6.41256C14.0375 4.32328 12.5018 3.18042 12.5018 3.18042C12.5018 3.18042 10.9661 4.32328 10.9661 6.41256C10.9661 8.50185 12.5018 9.64471 12.5018 9.64471C12.5018 9.64471 14.0375 8.50185 14.0375 6.41256Z" fill="#F7C719"/>
<path d="M12.7214 11.4499C12.6125 12.2089 12.6661 12.8106 12.6661 12.8106C12.6661 12.8106 12.8304 12.7928 13.0946 12.7339C13.7089 12.5981 14.875 12.2428 15.8661 11.3821C16.8518 10.5267 17.0411 9.38207 17.0643 8.76242C17.075 8.49099 17.0536 8.31778 17.0536 8.31778C17.0536 8.31778 16.5839 8.19099 15.9375 8.23207C15.3214 8.27135 14.5446 8.46242 13.8536 9.06242C13.1286 9.69099 12.8357 10.6571 12.7214 11.4499Z" fill="#F7C719"/>
<path d="M9.13214 11.3822C9.94821 12.0912 10.8839 12.4554 11.5321 12.6394C12.0107 12.7751 12.3321 12.8108 12.3321 12.8108C12.3321 12.8108 12.3696 12.409 12.3232 11.8483C12.2536 11.0054 11.9964 9.80187 11.1446 9.06258C9.72678 7.83222 7.94464 8.31794 7.94464 8.31794C7.94464 8.31794 7.71428 10.1519 9.13214 11.3822Z" fill="#F7C719"/>
<path d="M13.8553 13.2321C12.4357 14.4625 12.6678 16.9803 12.6678 16.9803C12.6678 16.9803 14.45 16.7803 15.8696 15.5518C17.2875 14.3196 17.0571 12.4875 17.0571 12.4875C17.0571 12.4875 15.2732 12 13.8553 13.2321Z" fill="#F7C719"/>
<path d="M9.13215 15.5518C9.34644 15.7375 9.56786 15.8964 9.79108 16.0375C11.0482 16.8339 12.3339 16.9803 12.3339 16.9803C12.3339 16.9803 12.4857 15.325 11.7857 14.0428C11.6232 13.7428 11.4143 13.4643 11.1446 13.2321C11.1071 13.2 11.0679 13.1714 11.0286 13.141C9.63036 12.0303 7.94286 12.4875 7.94286 12.4875C7.94286 12.4875 7.74286 14.0857 8.87144 15.2982C8.95179 15.3857 9.03751 15.4696 9.13215 15.5518Z" fill="#F7C719"/>
<path d="M13.8553 17.4C12.4357 18.6303 12.6678 21.1482 12.6678 21.1482C12.6678 21.1482 14.45 20.95 15.8696 19.7196C17.2875 18.4893 17.0571 16.6553 17.0571 16.6553C17.0571 16.6553 15.2732 16.1696 13.8553 17.4Z" fill="#F7C719"/>
</svg>
